<svg width="224" height="178" viewBox="0 0 224 178" fill="none" xmlns="http://www.w3.org/2000/svg">
<path d="M244.09 33.344H142.039V3.10399C142.039 1.83049 143.384 0.799988 145.041 0.799988H241.088C242.744 0.799988 244.09 1.83049 244.09 3.10399V33.344Z" fill="#E8A774"/>
<path d="M220.896 0.799988V33.344H244.09V3.10399C244.09 1.83049 242.744 0.799988 241.088 0.799988H220.896Z" fill="#DE9962"/>
<path d="M258.78 49.1615V157.76H220.122V101.971C220.122 90.494 208 81.2038 193.064 81.2038C178.12 81.2038 166.007 90.503 166.007 101.971V157.76H127.349V49.1615H258.78Z" fill="#E8A774"/>
<path d="M258.78 49.1615H127.349V24.7445C127.349 23.1538 129.032 21.8645 131.101 21.8645H255.027C257.1 21.8645 258.78 23.1538 258.78 24.7445V49.1615Z" fill="#D48B53"/>
<path d="M270.377 44.8415H115.752C112.645 44.8415 110.124 46.7742 110.124 49.1615C110.124 51.5465 112.645 53.4815 115.752 53.4815H270.377C273.484 53.4815 276.005 51.5465 276.005 49.1615C276.005 46.7742 273.484 44.8415 270.377 44.8415Z" fill="#C7824E"/>
<path d="M385.182 146.406V293.408C385.182 293.966 384.919 294.486 384.491 294.882C383.937 295.39 383.104 295.712 382.181 295.712H3.948C3.02458 295.712 2.19203 295.39 1.63798 294.882C1.20999 294.486 0.946152 293.966 0.946152 293.408V146.406C0.946152 145.133 2.28877 144.102 3.948 144.102H382.181C383.84 144.102 385.182 145.133 385.182 146.406Z" fill="#E8A774"/>
<path d="M385.182 295.712H3.948C3.02458 295.712 2.19203 295.39 1.63798 294.882L127.346 144.102H258.782L384.491 294.882L385.182 295.712Z" fill="#78909C"/>
<path d="M74.0047 120.795C70.8974 120.795 68.3763 122.727 68.3763 125.115V165.464C68.3763 167.851 70.8974 169.784 74.0047 169.784C77.1151 169.784 79.6332 167.851 79.6332 165.464V125.115C79.6332 122.727 77.1151 120.795 74.0047 120.795Z" fill="#78909C"/>
<path d="M30.7096 152.243C27.6022 152.243 25.0811 154.178 25.0811 156.563V221.835C25.0811 224.22 27.6022 226.155 30.7096 226.155C33.8199 226.155 36.338 224.22 36.338 221.835V156.563C36.338 154.178 33.8199 152.243 30.7096 152.243Z" fill="#78909C"/>
<path d="M74.2188 125.115H73.7908C67.5291 125.115 62.4078 121.182 62.4078 116.378V110.281C62.4078 105.385 67.6258 101.38 74.0048 101.38C80.3837 101.38 85.6017 105.385 85.6017 110.281V116.378C85.6017 121.182 80.4804 125.115 74.2188 125.115Z" fill="#FFB300"/>
<path d="M30.9236 156.563H30.4985C24.2368 156.563 19.1155 152.632 19.1155 147.826V141.729C19.1155 136.835 24.3336 132.828 30.7096 132.828C37.0885 132.828 42.3065 136.835 42.3065 141.729V147.826C42.3065 152.632 37.1852 156.563 30.9236 156.563Z" fill="#FFB300"/>
</svg>
